<?xml version="1.0" encoding="UTF-8"?>
<svg xmlns="http://www.w3.org/2000/svg" xmlns:xlink="http://www.w3.org/1999/xlink" width="491pt" height="567pt" viewBox="0 0 491 567" version="1.1">
<g id="surface1">
<path style=" stroke:none;fill-rule:evenodd;fill:rgb(96.09375%,87.5%,0%);fill-opacity:1;" d="M 0.0195313 -0.0195313 L 85.230469 -0.0195313 L 85.230469 35.117188 L 139.339844 35.117188 L 139.339844 -0.0195313 L 222.367188 -0.0195313 L 222.367188 35.117188 L 276.550781 35.117188 L 276.550781 -0.0195313 L 358.984375 -0.0195313 L 358.984375 35.117188 L 413.765625 35.117188 L 413.765625 -0.0195313 L 491.050781 -0.0195313 L 491.050781 42.027344 L 435.308594 113.738281 L 437.453125 455.996094 L 240.859375 566.910156 L 49.335938 455.996094 L 55.765625 112.773438 L 0.0195313 39.921875 Z M 0.0195313 -0.0195313 "/>
<path style=" stroke:none;fill-rule:evenodd;fill:rgb(2.745056%,19.213867%,52.539063%);fill-opacity:1;" d="M 15.027344 14.988281 L 15.027344 34.839844 L 17.6875 38.316406 L 70.222656 38.316406 L 70.222656 14.988281 Z M 20.855469 42.457031 L 45.582031 74.761719 L 57.714844 74.761719 L 57.714844 42.457031 Z M 61.859375 74.761719 L 133.828125 74.761719 L 133.828125 50.125 L 70.222656 50.125 L 70.222656 42.457031 L 61.859375 42.457031 Z M 137.96875 74.761719 L 203.503906 74.761719 L 203.503906 42.457031 L 154.34375 42.457031 L 154.34375 50.125 L 137.96875 50.125 Z M 207.648438 74.761719 L 281.761719 74.761719 L 281.761719 50.125 L 207.648438 50.125 Z M 285.902344 74.761719 L 346.085938 74.761719 L 346.085938 50.125 L 343.976563 50.125 L 343.976563 42.457031 L 291.558594 42.457031 L 291.558594 50.125 L 285.902344 50.125 Z M 350.222656 74.761719 L 423.261719 74.761719 L 423.261719 50.125 L 350.222656 50.125 Z M 427.40625 74.761719 L 446.59375 74.761719 L 471.710938 42.457031 L 428.773438 42.457031 L 428.773438 50.125 L 427.40625 50.125 Z M 48.746094 78.90625 L 70.183594 106.921875 L 95.347656 106.921875 L 95.347656 78.90625 Z M 99.488281 106.921875 L 167.171875 106.921875 L 167.171875 78.90625 L 99.488281 78.90625 Z M 171.3125 106.921875 L 238.992188 106.921875 L 238.992188 78.90625 L 171.3125 78.90625 Z M 243.136719 106.921875 L 311.886719 106.921875 L 311.886719 78.90625 L 243.136719 78.90625 Z M 316.03125 106.921875 L 383.710938 106.921875 L 383.710938 78.90625 L 316.03125 78.90625 Z M 387.851563 106.921875 L 421.597656 106.921875 L 443.378906 78.90625 L 387.851563 78.90625 Z M 131.660156 111.066406 C 215.914063 231.007813 305.796875 346.515625 399.152344 460.371094 L 422.390625 447.261719 L 420.28125 111.066406 Z M 474.925781 38.316406 L 476.046875 36.878906 L 476.046875 14.988281 L 428.773438 14.988281 L 428.773438 38.316406 Z M 343.976563 14.988281 L 291.558594 14.988281 L 291.558594 38.316406 L 343.976563 38.316406 Z M 207.359375 14.988281 L 154.34375 14.988281 L 154.34375 38.316406 L 207.359375 38.316406 Z M 70.578125 123.414063 L 64.503906 447.4375 L 240.960938 549.621094 L 349.519531 488.375 Z M 70.578125 123.414063 "/>
<path style=" stroke:none;fill-rule:evenodd;fill:rgb(96.09375%,87.5%,0%);fill-opacity:1;" d="M 178.839844 158.199219 L 390.089844 158.199219 C 396.558594 161.503906 401.464844 165.597656 406.359375 170.480469 L 406.339844 204.351563 L 394.976563 212.453125 L 410.320313 221.289063 L 410.34375 259.382813 L 391.863281 271.246094 L 291.246094 271.035156 L 285.886719 265.578125 L 285.886719 183.992188 L 301.160156 184.289063 L 301.160156 206.242188 L 386.390625 206.242188 L 390.976563 201.167969 L 390.976563 178.3125 L 387.464844 174.765625 L 191.714844 174.765625 Z M 397.109375 250.738281 L 397.109375 226.839844 L 391.753906 220.441406 L 301.160156 220.441406 L 301.160156 252.816406 L 303.714844 255.75 L 391.660156 255.75 Z M 397.109375 250.738281 "/>
<path style=" stroke:none;fill-rule:evenodd;fill:rgb(96.09375%,87.5%,0%);fill-opacity:1;" d="M 278.136719 183.65625 L 201.144531 183.65625 L 201.144531 186.917969 L 210.902344 199.386719 L 278.136719 199.386719 Z M 278.136719 183.65625 "/>
<path style=" stroke:none;fill-rule:evenodd;fill:rgb(96.09375%,87.5%,0%);fill-opacity:1;" d="M 278.136719 206.167969 L 216.210938 206.167969 L 228.515625 221.898438 L 278.136719 221.898438 Z M 278.136719 206.167969 "/>
<path style=" stroke:none;fill-rule:evenodd;fill:rgb(96.09375%,87.5%,0%);fill-opacity:1;" d="M 278.136719 231.894531 L 236.339844 231.894531 L 248.648438 247.628906 L 278.136719 247.628906 Z M 278.136719 231.894531 "/>
<path style=" stroke:none;fill-rule:evenodd;fill:rgb(96.09375%,87.5%,0%);fill-opacity:1;" d="M 278.136719 256.550781 L 255.632813 256.550781 L 267.941406 272.285156 L 278.136719 272.285156 Z M 278.136719 256.550781 "/>
<path style=" stroke:none;fill-rule:evenodd;fill:rgb(2.745056%,19.213867%,52.539063%);fill-opacity:1;" d="M 153.003906 156.367188 L 161.921875 168.148438 C 163.691406 170.484375 164.90625 172.292969 165.5625 173.570313 C 166.226563 174.847656 166.566406 176.144531 166.59375 177.46875 C 166.621094 178.792969 166.3125 180.09375 165.671875 181.394531 C 165.039063 182.6875 164.035156 183.773438 162.683594 184.628906 C 161.214844 185.5625 159.574219 186.050781 157.78125 186.089844 C 155.984375 186.121094 154.296875 185.699219 152.722656 184.820313 C 153.523438 186.964844 153.617188 188.953125 153.007813 190.765625 C 152.390625 192.585938 151.171875 194.070313 149.355469 195.222656 C 147.925781 196.128906 146.300781 196.699219 144.476563 196.933594 C 142.65625 197.164063 140.925781 197 139.304688 196.433594 C 137.683594 195.867188 136.175781 194.851563 134.785156 193.386719 C 133.929688 192.46875 132.046875 190.121094 129.140625 186.34375 L 121.546875 176.308594 Z M 152.277344 165.644531 L 145.003906 170.253906 L 147.953125 174.152344 C 149.714844 176.472656 150.839844 177.890625 151.339844 178.40625 C 152.230469 179.34375 153.214844 179.910156 154.273438 180.097656 C 155.339844 180.285156 156.378906 180.054688 157.394531 179.410156 C 158.371094 178.789063 158.972656 178.042969 159.203125 177.15625 C 159.425781 176.261719 159.226563 175.28125 158.601563 174.214844 C 158.230469 173.578125 156.984375 171.859375 154.863281 169.0625 Z M 139.765625 173.574219 L 131.355469 178.90625 L 135.523438 184.40625 C 137.148438 186.558594 138.238281 187.878906 138.804688 188.371094 C 139.644531 189.148438 140.613281 189.601563 141.695313 189.738281 C 142.78125 189.871094 143.886719 189.585938 145.003906 188.882813 C 145.945313 188.28125 146.578125 187.558594 146.914063 186.714844 C 147.246094 185.863281 147.261719 184.9375 146.949219 183.9375 C 146.636719 182.9375 145.449219 181.082031 143.402344 178.378906 Z M 139.765625 173.574219 "/>
<path style=" stroke:none;fill-rule:evenodd;fill:rgb(2.745056%,19.213867%,52.539063%);fill-opacity:1;" d="M 179.214844 190.988281 L 183.71875 196.9375 L 166.679688 207.738281 C 163.976563 209.453125 162.277344 210.640625 161.589844 211.292969 C 160.492188 212.363281 159.921875 213.628906 159.867188 215.074219 C 159.808594 216.535156 160.414063 218.089844 161.671875 219.75 C 162.949219 221.4375 164.28125 222.484375 165.671875 222.871094 C 167.054688 223.265625 168.351563 223.203125 169.550781 222.699219 C 170.761719 222.195313 172.605469 221.148438 175.09375 219.570313 L 192.503906 208.539063 L 197.003906 214.488281 L 180.476563 224.960938 C 176.699219 227.359375 173.914063 228.890625 172.109375 229.558594 C 170.304688 230.222656 168.546875 230.464844 166.816406 230.28125 C 165.089844 230.09375 163.355469 229.480469 161.628906 228.441406 C 159.894531 227.398438 158.144531 225.703125 156.378906 223.371094 C 154.253906 220.558594 152.976563 218.203125 152.574219 216.308594 C 152.171875 214.410156 152.199219 212.695313 152.671875 211.148438 C 153.136719 209.605469 153.878906 208.308594 154.890625 207.273438 C 156.398438 205.738281 158.910156 203.859375 162.433594 201.625 Z M 179.214844 190.988281 "/>
<path style=" stroke:none;fill-rule:evenodd;fill:rgb(2.745056%,19.213867%,52.539063%);fill-opacity:1;" d="M 174.519531 246.289063 L 205.980469 226.34375 L 210.484375 232.296875 L 179.023438 252.238281 Z M 174.519531 246.289063 "/>
<path style=" stroke:none;fill-rule:evenodd;fill:rgb(2.745056%,19.213867%,52.539063%);fill-opacity:1;" d="M 219.113281 243.695313 L 223.617188 249.644531 L 206.585938 260.445313 C 203.878906 262.160156 202.175781 263.347656 201.488281 264 C 200.390625 265.070313 199.820313 266.335938 199.765625 267.78125 C 199.714844 269.238281 200.316406 270.796875 201.570313 272.457031 C 202.851563 274.148438 204.183594 275.191406 205.570313 275.578125 C 206.953125 275.972656 208.253906 275.910156 209.449219 275.40625 C 210.664063 274.902344 212.503906 273.855469 214.996094 272.277344 L 232.398438 261.242188 L 236.902344 267.195313 L 220.378906 277.671875 C 216.597656 280.066406 213.8125 281.597656 212.007813 282.265625 C 210.203125 282.929688 208.445313 283.171875 206.714844 282.988281 C 204.992188 282.804688 203.257813 282.1875 201.527344 281.148438 C 199.796875 280.105469 198.046875 278.410156 196.277344 276.078125 C 194.148438 273.265625 192.878906 270.910156 192.472656 269.015625 C 192.066406 267.117188 192.101563 265.402344 192.566406 263.855469 C 193.035156 262.3125 193.777344 261.015625 194.789063 259.976563 C 196.296875 258.445313 198.808594 256.566406 202.339844 254.335938 Z M 219.113281 243.695313 "/>
<path style=" stroke:none;fill-rule:evenodd;fill:rgb(2.745056%,19.213867%,52.539063%);fill-opacity:1;" d="M 239.777344 309.886719 L 242.195313 316.882813 C 238.089844 318.175781 234.429688 318.324219 231.199219 317.324219 C 227.984375 316.328125 225.171875 314.242188 222.773438 311.078125 C 219.8125 307.164063 218.804688 303.042969 219.746094 298.714844 C 220.695313 294.386719 223.644531 290.648438 228.589844 287.515625 C 233.828125 284.195313 238.851563 282.886719 243.671875 283.582031 C 248.480469 284.28125 252.449219 286.6875 255.578125 290.820313 C 258.304688 294.421875 259.386719 298.074219 258.816406 301.769531 C 258.492188 303.960938 257.316406 306.191406 255.304688 308.460938 L 249.34375 303.515625 C 250.714844 302.136719 251.453125 300.59375 251.558594 298.882813 C 251.671875 297.179688 251.117188 295.535156 249.921875 293.957031 C 248.269531 291.777344 246.089844 290.527344 243.382813 290.234375 C 240.683594 289.933594 237.464844 290.972656 233.714844 293.347656 C 229.730469 295.871094 227.402344 298.332031 226.734375 300.746094 C 226.058594 303.15625 226.535156 305.433594 228.15625 307.574219 C 229.355469 309.160156 230.921875 310.179688 232.859375 310.636719 C 234.789063 311.097656 237.101563 310.839844 239.777344 309.886719 Z M 239.777344 309.886719 "/>
<path style=" stroke:none;fill-rule:evenodd;fill:rgb(2.745056%,19.213867%,52.539063%);fill-opacity:1;" d="M 260.933594 360.4375 L 256.027344 353.960938 L 261.230469 346.855469 L 252.308594 335.070313 L 243.320313 337.175781 L 238.546875 330.859375 L 278.691406 322.398438 L 283.460938 328.691406 Z M 265.085938 341.589844 L 273.679688 330.125 L 258.992188 333.546875 Z M 265.085938 341.589844 "/>
<path style=" stroke:none;fill-rule:evenodd;fill:rgb(2.745056%,19.213867%,52.539063%);fill-opacity:1;" d="M 267.105469 368.59375 L 298.5625 348.648438 L 302.949219 354.441406 L 291.074219 379.820313 L 312.085938 366.503906 L 316.269531 372.035156 L 284.808594 391.980469 L 280.285156 386 L 291.808594 361.117188 L 271.296875 374.125 Z M 267.105469 368.59375 "/>
<path style=" stroke:none;fill-rule:evenodd;fill:rgb(2.745056%,19.213867%,52.539063%);fill-opacity:1;" d="M 294.421875 404.675781 L 325.878906 384.734375 L 330.386719 390.683594 L 298.925781 410.625 Z M 294.421875 404.675781 "/>
<path style=" stroke:none;fill-rule:evenodd;fill:rgb(96.09375%,87.5%,0%);fill-opacity:1;" d="M 205.621094 487.046875 L 211.410156 487.046875 C 211.449219 490.101563 212.8125 492.324219 215.507813 493.710938 C 217.65625 494.859375 220.480469 495.429688 223.976563 495.429688 C 227.144531 495.429688 229.695313 494.875 231.628906 493.765625 C 233.554688 492.652344 234.519531 491.109375 234.519531 489.128906 C 234.519531 486.214844 232.097656 484.375 227.253906 483.609375 L 218.402344 482.203125 C 210.683594 480.988281 206.824219 477.742188 206.824219 472.464844 C 206.824219 469.03125 208.199219 466.289063 210.949219 464.238281 C 213.695313 462.191406 217.53125 461.167969 222.449219 461.167969 C 226.964844 461.167969 230.640625 461.980469 233.480469 463.613281 C 236.941406 465.628906 238.800781 468.699219 239.054688 472.832031 L 233.261719 472.832031 C 232.503906 468.25 228.636719 465.957031 221.683594 465.957031 C 219.242188 465.957031 217.203125 466.425781 215.5625 467.363281 C 213.597656 468.472656 212.613281 470.035156 212.613281 472.050781 C 212.613281 474.617188 214.746094 476.25 219.003906 476.945313 L 228.566406 478.507813 C 236.394531 479.792969 240.308594 482.96875 240.308594 488.035156 C 240.308594 492.375 238.507813 495.585938 234.902344 497.667969 C 231.953125 499.371094 228.164063 500.222656 223.539063 500.222656 C 218.441406 500.222656 214.363281 499.300781 211.304688 497.460938 C 207.515625 495.238281 205.621094 491.769531 205.621094 487.046875 Z M 205.621094 487.046875 "/>
<path style=" stroke:none;fill-rule:evenodd;fill:rgb(96.09375%,87.5%,0%);fill-opacity:1;" d="M 279.882813 474.894531 C 279.433594 472.117188 278.179688 470.320313 276.132813 468.621094 C 273.878906 466.746094 270.886719 465.808594 267.171875 465.808594 C 262.65625 465.808594 259.164063 467.078125 256.699219 469.609375 C 254.09375 472.25 252.789063 476.050781 252.789063 481.015625 C 252.789063 484.972656 253.851563 488.234375 255.96875 490.804688 C 258.46875 493.789063 262.097656 495.28125 266.859375 495.28125 C 274.046875 495.28125 278.390625 491.828125 279.882813 484.921875 L 285.171875 486.488281 C 284.464844 490.066406 282.675781 493.113281 279.777344 495.59375 C 276.28125 498.589844 271.945313 500.074219 266.804688 500.074219 C 261.460938 500.074219 257.027344 498.617188 253.519531 495.699219 C 249.351563 492.226563 247.265625 487.140625 247.265625 480.441406 C 247.265625 474.785156 248.933594 470.183594 252.269531 466.644531 C 255.777344 462.894531 260.605469 461.019531 266.753906 461.019531 C 271.304688 461.019531 275.230469 462.007813 278.527344 463.988281 C 282.046875 466.125 284.226563 469.152344 285.074219 473.070313 Z M 279.882813 474.894531 "/>
<path style=" stroke:none;fill-rule:evenodd;fill:rgb(96.09375%,87.5%,0%);fill-opacity:1;" d="M 194.128906 474.894531 C 192.355469 468.5625 186.960938 465.808594 181.410156 465.808594 C 176.894531 465.808594 173.40625 467.078125 170.9375 469.609375 C 168.335938 472.25 167.03125 476.050781 167.03125 481.015625 C 167.03125 484.972656 168.089844 488.234375 170.214844 490.804688 C 172.714844 493.789063 176.339844 495.28125 181.101563 495.28125 C 188.289063 495.28125 192.632813 491.828125 194.128906 484.921875 L 199.410156 486.488281 C 198.710938 490.066406 196.921875 493.113281 194.019531 495.59375 C 190.523438 498.589844 186.1875 500.074219 181.046875 500.074219 C 175.699219 500.074219 171.269531 498.617188 167.761719 495.699219 C 163.59375 492.226563 161.507813 487.140625 161.507813 480.441406 C 161.507813 474.785156 163.175781 470.183594 166.511719 466.644531 C 170.019531 462.894531 174.847656 461.019531 180.996094 461.019531 C 188.691406 461.019531 195.796875 463.710938 199.316406 473.070313 Z M 194.128906 474.894531 "/>
<path style=" stroke:none;fill-rule:evenodd;fill:rgb(96.09375%,87.5%,0%);fill-opacity:1;" d="M 304.175781 498.65625 L 304.175781 467.339844 L 289.425781 467.339844 L 289.425781 462.550781 L 324.714844 462.550781 L 324.714844 467.339844 L 309.964844 467.339844 L 309.964844 498.65625 Z M 304.175781 498.65625 "/>
<path style=" stroke:none;fill-rule:evenodd;fill:rgb(96.09375%,87.5%,0%);fill-opacity:1;" d="M 149.921875 301.789063 C 189.496094 301.789063 221.578125 332.554688 221.578125 370.503906 C 221.578125 408.453125 189.496094 439.21875 149.921875 439.21875 C 110.339844 439.21875 78.257813 408.453125 78.257813 370.503906 C 78.257813 332.554688 110.339844 301.789063 149.921875 301.789063 Z M 149.921875 301.789063 "/>
<path style=" stroke:none;fill-rule:evenodd;fill:rgb(2.745056%,19.213867%,52.539063%);fill-opacity:1;" d="M 168.605469 352.121094 L 144.78125 362.933594 L 127.980469 356.105469 L 127.746094 334.179688 L 146.28125 320.367188 L 167.617188 332.078125 Z M 191.609375 319.898438 C 192.886719 320.863281 194.128906 321.867188 195.320313 322.914063 L 191.816406 321.398438 Z M 202.472656 330.203125 C 205.730469 334.082031 208.527344 338.328125 210.785156 342.867188 L 208.53125 362.832031 L 192.144531 368.726563 L 172.46875 352.335938 L 171.496094 332.589844 L 190.863281 325.179688 Z M 216.578125 379.875 C 215.066406 389.769531 211.210938 398.941406 205.550781 406.84375 L 184.621094 407.683594 L 179.863281 395.703125 L 192.273438 372.773438 L 209.066406 366.734375 Z M 167.09375 432.816406 C 161.609375 434.195313 155.855469 434.929688 149.921875 434.929688 C 144.617188 434.929688 139.460938 434.34375 134.507813 433.234375 L 141.144531 426.140625 L 165.503906 426.113281 Z M 102.320313 416.09375 C 99.242188 413.15625 96.460938 409.929688 94.015625 406.46875 L 98.628906 408.5625 Z M 90.320313 400.566406 C 85.359375 391.589844 82.546875 381.359375 82.546875 370.503906 C 82.546875 368.894531 82.609375 367.304688 82.730469 365.722656 L 90.371094 358.808594 L 103.90625 374.714844 L 107.984375 393.929688 L 99.003906 404.503906 Z M 83.464844 359.863281 C 85.511719 348.089844 90.902344 337.394531 98.667969 328.695313 L 99.136719 334.738281 L 89.179688 354.691406 Z M 102.242188 324.988281 C 112.351563 315.304688 125.671875 308.6875 140.53125 306.703125 L 144.078125 317.210938 L 126.109375 330.601563 L 102.695313 330.859375 Z M 141.609375 422.292969 L 134.886719 404.636719 L 150.21875 391.875 L 176.429688 397.488281 L 181.117188 409.289063 L 167.003906 422.261719 Z M 132.554688 401.570313 L 111.785156 393.292969 L 107.839844 374.707031 L 126.527344 359.671875 L 143.328125 366.5 L 147.671875 388.988281 Z M 132.554688 401.570313 "/>
</g>
</svg>
